# xmcd
#
# Track frame offsets: 
#        150
#        15417
#        28050
#        42710
#        58275
#        75127
#        96435
#        112670
#        126452
#        142740
#        162285
#        175772
#        193207
#        211602
#
# Disc length: 3053 seconds
#
# Revision: 2
# Processed by: cddbd v1.4PL0 Copyright (c) Steve Scherf et al.
# Submitted via: ExactAudioCopy v0.90a11
#
DISCID=b50beb0e
DTITLE=Trisha Yearwood - Thinkin' About You
DYEAR=1900
DGENRE=
TTITLE0=Thinkin' About You
TTITLE1=XXX's And OOO's (An American Girl)
TTITLE2=You Can Sleep While I Drive
TTITLE3=The Restless Kind
TTITLE4=Two Days From Knowing (Bonus Track)
TTITLE5=On A Bus To St. Cloud
TTITLE6=Fairytail
TTITLE7=Those Words We Said
TTITLE8=O Mexico
TTITLE9=Jackies House (Bonus Track)
TTITLE10=I Wanna Go Too Far
TTITLE11=Bartender Blues (Duet With George Jones) (Bonus Track)
TTITLE12=Till I Get It Right
TTITLE13=Save The Land (Duet With Lee Kernaghan) (Bonus Track)
EXTD=
EXTT0=
EXTT1=
EXTT2=
EXTT3=
EXTT4=
EXTT5=
EXTT6=
EXTT7=
EXTT8=
EXTT9=
EXTT10=
EXTT11=
EXTT12=
EXTT13=
PLAYORDER=
